<svg aria-hidden="true" style="position: absolute; width: 0; height: 0; overflow: hidden;" version="1.1" xmlns="http://www.w3.org/2000/svg" xmlns:xlink="http://www.w3.org/1999/xlink">
<defs>
<symbol id="icon-arrowback-3" viewBox="0 0 32 32">
<path d="M25.333 14.667h-15.813l4.84-5.813c0.226-0.272 0.335-0.623 0.303-0.976s-0.204-0.678-0.476-0.904c-0.272-0.226-0.623-0.335-0.976-0.303s-0.678 0.204-0.904 0.476l-6.667 8c-0.045 0.064-0.085 0.13-0.12 0.2 0 0.067 0 0.107-0.093 0.173-0.060 0.153-0.092 0.316-0.093 0.48 0.001 0.164 0.033 0.327 0.093 0.48 0 0.067 0 0.107 0.093 0.173 0.035 0.070 0.075 0.136 0.12 0.2l6.667 8c0.125 0.151 0.282 0.272 0.46 0.354s0.371 0.126 0.567 0.126c0.312 0.001 0.613-0.108 0.853-0.307 0.135-0.112 0.247-0.249 0.328-0.405s0.132-0.325 0.148-0.5c0.016-0.175-0.002-0.351-0.054-0.518s-0.137-0.323-0.249-0.458l-4.84-5.813h15.813c0.354 0 0.693-0.14 0.943-0.39s0.39-0.589 0.39-0.943-0.14-0.693-0.39-0.943c-0.25-0.25-0.589-0.39-0.943-0.39z"></path>
</symbol>
<symbol id="icon-arrowleft-2" viewBox="0 0 32 32">
<path d="M30.077 21.294c-0.131 0.021-0.263 0.031-0.396 0.029h-22.575l0.492 0.229c0.481 0.228 0.919 0.538 1.294 0.916l6.331 6.331c0.834 0.796 0.974 2.076 0.332 3.034-0.747 1.020-2.18 1.242-3.2 0.495-0.082-0.060-0.161-0.126-0.234-0.197l-11.448-11.448c-0.895-0.894-0.895-2.343-0.002-3.238 0.001-0.001 0.001-0.001 0.002-0.002l11.448-11.448c0.895-0.893 2.345-0.891 3.238 0.005 0.070 0.070 0.136 0.145 0.196 0.224 0.642 0.957 0.502 2.238-0.332 3.034l-6.319 6.342c-0.336 0.336-0.722 0.618-1.145 0.836l-0.687 0.309h22.484c1.17-0.043 2.196 0.774 2.415 1.923 0.202 1.248-0.645 2.424-1.894 2.627z"></path>
</symbol>
<symbol id="icon-arrowright-2" viewBox="0 0 32 32">
<path d="M1.923 21.294c0.131 0.021 0.263 0.031 0.396 0.029h22.575l-0.492 0.229c-0.481 0.228-0.919 0.538-1.294 0.916l-6.331 6.331c-0.834 0.796-0.974 2.076-0.332 3.034 0.747 1.020 2.18 1.242 3.2 0.495 0.082-0.060 0.161-0.126 0.234-0.197l11.448-11.448c0.895-0.894 0.895-2.343 0.002-3.238-0.001-0.001-0.001-0.001-0.002-0.002l-11.448-11.448c-0.895-0.893-2.345-0.891-3.238 0.005-0.070 0.070-0.136 0.145-0.196 0.224-0.642 0.957-0.502 2.238 0.332 3.034l6.319 6.342c0.336 0.336 0.722 0.618 1.145 0.836l0.687 0.309h-22.484c-1.17-0.043-2.196 0.774-2.416 1.923-0.202 1.248 0.645 2.424 1.893 2.627z"></path>
</symbol>
<symbol id="icon-arrowup-3" viewBox="0 0 32 32">
<path d="M6.667 14.667h15.813l-4.84-5.813c-0.226-0.272-0.335-0.623-0.303-0.976s0.204-0.678 0.476-0.904c0.272-0.226 0.623-0.335 0.976-0.303s0.678 0.204 0.904 0.476l6.667 8c0.045 0.064 0.085 0.13 0.12 0.2 0 0.067 0 0.107 0.093 0.173 0.060 0.153 0.092 0.316 0.093 0.48-0.001 0.164-0.033 0.327-0.093 0.48 0 0.067 0 0.107-0.093 0.173-0.035 0.070-0.075 0.136-0.12 0.2l-6.667 8c-0.125 0.151-0.282 0.272-0.46 0.354s-0.371 0.126-0.567 0.126c-0.312 0.001-0.613-0.108-0.853-0.307-0.135-0.112-0.247-0.249-0.328-0.405s-0.132-0.325-0.148-0.5c-0.016-0.175 0.002-0.351 0.054-0.518s0.137-0.323 0.249-0.458l4.84-5.813h-15.813c-0.354 0-0.693-0.14-0.943-0.39s-0.391-0.589-0.391-0.943 0.14-0.693 0.391-0.943c0.25-0.25 0.589-0.39 0.943-0.39z"></path>
</symbol>
<symbol id="icon-arvrdesktop-1" viewBox="0 0 32 32">
<path d="M27.972 2.050h-23.848c-2.003 0.002-3.627 1.626-3.629 3.629v20.738c0.002 2.003 1.626 3.627 3.629 3.629h23.848c2.003-0.002 3.627-1.626 3.629-3.629v-20.738c-0.002-2.003-1.626-3.627-3.629-3.629zM30.564 26.417c-0.002 1.431-1.161 2.591-2.592 2.592h-23.848c-1.431-0.002-2.591-1.161-2.592-2.592v-20.738c0.002-1.431 1.161-2.591 2.592-2.592h23.848c1.431 0.002 2.59 1.161 2.592 2.592v20.738z"></path>
<path d="M27.972 6.197h-23.848c-0.859 0-1.555 0.696-1.555 1.555v18.664c0 0.859 0.696 1.555 1.555 1.555h23.848c0.859 0 1.555-0.696 1.555-1.555v-18.664c0-0.859-0.696-1.555-1.555-1.555zM16.048 16.496l-5.646-3.040 5.646-3.040 5.646 3.040-5.646 3.040zM22.269 14.323v6.079l-5.703 3.072v-6.079l5.703-3.072zM15.529 17.396v6.079l-5.703-3.072v-6.079l5.703 3.072zM3.605 7.753c0-0.286 0.232-0.518 0.518-0.518h11.406v2.281l-6.467 3.484c-0.007 0.004-0.014 0.005-0.021 0.009-0.157 0.094-0.252 0.264-0.251 0.447v4.346l-5.184 2.592v-12.641zM28.49 26.417c0 0.286-0.232 0.518-0.518 0.518h-23.848c-0.286 0-0.518-0.232-0.518-0.518v-4.864l5.184-2.592v1.753c0 0.191 0.105 0.366 0.273 0.456l6.74 3.629c0.153 0.083 0.338 0.083 0.491 0l6.74-3.629c0.168-0.090 0.273-0.266 0.273-0.456v-1.753l5.184 2.592v4.864zM28.49 20.393l-5.184-2.592v-4.346c-0-0.182-0.096-0.351-0.253-0.445-0.007-0.004-0.015-0.006-0.021-0.009l-6.466-3.486v-2.281h11.406c0.286 0 0.518 0.232 0.518 0.518v12.641z"></path>
<path d="M3.605 5.16c0.286 0 0.518-0.232 0.518-0.518s-0.232-0.518-0.518-0.518c-0.286 0-0.518 0.232-0.518 0.518s0.232 0.518 0.518 0.518z"></path>
<path d="M5.679 5.16c0.286 0 0.518-0.232 0.518-0.518s-0.232-0.518-0.518-0.518c-0.286 0-0.518 0.232-0.518 0.518s0.232 0.518 0.518 0.518z"></path>
<path d="M7.753 5.16c0.286 0 0.518-0.232 0.518-0.518s-0.232-0.518-0.518-0.518c-0.286 0-0.518 0.232-0.518 0.518s0.232 0.518 0.518 0.518z"></path>
<path d="M20.714 5.16h7.258c0.286 0 0.518-0.232 0.518-0.518s-0.232-0.518-0.518-0.518h-7.258c-0.286 0-0.518 0.232-0.518 0.518s0.232 0.518 0.518 0.518z"></path>
</symbol>
<symbol id="icon-bxserver-3" viewBox="0 0 33 32">
<path d="M27.333 4h-21.333c-0.707 0-1.386 0.281-1.886 0.781s-0.781 1.178-0.781 1.886v5.333c0 0.707 0.281 1.385 0.781 1.886s1.178 0.781 1.886 0.781h21.333c0.707 0 1.385-0.281 1.886-0.781s0.781-1.178 0.781-1.886v-5.333c0-0.707-0.281-1.386-0.781-1.886s-1.178-0.781-1.886-0.781zM20.667 9.333c0 0.736-0.597 1.333-1.333 1.333s-1.333-0.597-1.333-1.333c0-0.736 0.597-1.333 1.333-1.333s1.333 0.597 1.333 1.333zM26 9.333c0 0.736-0.597 1.333-1.333 1.333s-1.333-0.597-1.333-1.333c0-0.736 0.597-1.333 1.333-1.333s1.333 0.597 1.333 1.333zM27.333 17.333h-21.333c-0.707 0-1.386 0.281-1.886 0.781s-0.781 1.178-0.781 1.886v5.333c0 0.707 0.281 1.385 0.781 1.886s1.178 0.781 1.886 0.781h21.333c0.707 0 1.385-0.281 1.886-0.781s0.781-1.178 0.781-1.886v-5.333c0-0.707-0.281-1.385-0.781-1.886s-1.178-0.781-1.886-0.781zM20.667 22.667c0 0.736-0.597 1.333-1.333 1.333s-1.333-0.597-1.333-1.333c0-0.736 0.597-1.333 1.333-1.333s1.333 0.597 1.333 1.333zM26 22.667c0 0.736-0.597 1.333-1.333 1.333s-1.333-0.597-1.333-1.333c0-0.736 0.597-1.333 1.333-1.333s1.333 0.597 1.333 1.333z"></path>
</symbol>
<symbol id="icon-check-3" viewBox="0 0 33 32">
<path d="M16.798 2.667c-7.352 0-13.333 5.981-13.333 13.333s5.981 13.333 13.333 13.333c7.352 0 13.333-5.981 13.333-13.333s-5.981-13.333-13.333-13.333zM14.133 21.884l-4.007-3.999c-0.521-0.52-0.522-1.364-0.002-1.885s1.364-0.522 1.886-0.002l2.121 2.118 6.116-6.116c0.521-0.521 1.365-0.521 1.885 0s0.521 1.365 0 1.885l-7.999 7.999z"></path>
</symbol>
<symbol id="icon-cube-1" viewBox="0 0 32 32">
<path d="M31.352 27.45l-0.662-2.469c-0.086-0.322-0.417-0.512-0.738-0.426s-0.512 0.416-0.426 0.738l0.29 1.081-4.228-2.412v-10.023c0-0.216-0.115-0.415-0.302-0.522l-8.736-5.022v-4.773l0.779 0.779c0.235 0.235 0.617 0.235 0.852 0s0.235-0.617 0-0.852l-1.808-1.808c-0.235-0.236-0.621-0.232-0.852 0l-1.808 1.808c-0.235 0.235-0.235 0.617 0 0.852s0.617 0.235 0.852 0l0.779-0.779v4.774l-8.677 5.022c-0.186 0.108-0.301 0.306-0.301 0.521v9.926l-4.287 2.436 0.29-1.083c0.086-0.322-0.105-0.652-0.426-0.738s-0.652 0.105-0.738 0.426l-0.662 2.47c-0.084 0.313 0.104 0.661 0.444 0.743l2.451 0.657c0.324 0.087 0.653-0.107 0.738-0.426 0.086-0.321-0.105-0.652-0.426-0.738l-1.046-0.28 4.255-2.418 8.718 5.134c0.187 0.11 0.418 0.111 0.607 0.003l2.21-1.274c0.288-0.166 0.387-0.535 0.221-0.823s-0.535-0.387-0.823-0.221l-1.906 1.099-7.819-4.604 7.74-4.398 7.889 4.5-1.207 0.696c-0.288 0.166-0.387 0.535-0.221 0.823s0.535 0.387 0.823 0.221l1.818-1.048 4.18 2.385-1.047 0.28c-0.321 0.086-0.512 0.416-0.426 0.738 0.086 0.32 0.415 0.513 0.738 0.426l2.415-0.647c0.345-0.061 0.573-0.407 0.48-0.753zM24.383 23.274l-7.833-4.468v-9.022l7.833 4.503v8.987zM7.573 14.286l7.773-4.499v8.976l-7.773 4.417v-8.894z"></path>
<path d="M20.527 27.472c0.333 0 0.603-0.27 0.603-0.602s-0.27-0.603-0.603-0.603c-0.333 0-0.602 0.27-0.602 0.603s0.27 0.602 0.602 0.602z"></path>
</symbol>
<symbol id="icon-ellipse-4" viewBox="0 0 32 32">
<path d="M32 16c0 8.837-7.163 16-16 16s-16-7.163-16-16c0-8.837 7.163-16 16-16s16 7.163 16 16z"></path>
</symbol>
<symbol id="icon-facebook-1" viewBox="0 0 32 32">
<path d="M21.331 5.313h2.921v-5.088c-0.504-0.069-2.237-0.225-4.256-0.225-4.212 0-7.097 2.649-7.097 7.519v4.481h-4.648v5.688h4.648v14.312h5.699v-14.311h4.46l0.708-5.688h-5.169v-3.919c0.001-1.644 0.444-2.769 2.735-2.769z"></path>
</symbol>
<symbol id="icon-fire-1" viewBox="0 0 32 32">
<path d="M27.932 18.736c-0.367-4.772-2.589-7.763-4.549-10.402-1.815-2.443-3.383-4.553-3.383-7.665 0-0.25-0.14-0.478-0.362-0.593s-0.49-0.096-0.693 0.051c-2.944 2.107-5.4 5.657-6.258 9.045-0.596 2.359-0.675 5.010-0.686 6.761-2.719-0.581-3.335-4.647-3.341-4.692-0.031-0.211-0.159-0.395-0.347-0.495-0.189-0.099-0.412-0.106-0.604-0.011-0.143 0.069-3.499 1.775-3.695 8.585-0.014 0.227-0.014 0.454-0.014 0.681 0 6.616 5.383 11.999 12 11.999 0.009 0.001 0.019 0.002 0.027 0 0.003 0 0.005 0 0.008 0 6.6-0.019 11.965-5.395 11.965-11.999 0-0.333-0.068-1.264-0.068-1.264zM16 30.666c-2.206 0-4-1.911-4-4.261 0-0.080-0.001-0.161 0.005-0.26 0.027-0.991 0.215-1.667 0.421-2.117 0.387 0.831 1.078 1.594 2.201 1.594 0.368 0 0.667-0.298 0.667-0.667 0-0.949 0.020-2.044 0.256-3.032 0.21-0.876 0.713-1.808 1.35-2.556 0.283 0.97 0.835 1.755 1.374 2.521 0.771 1.096 1.569 2.23 1.709 4.162 0.008 0.115 0.017 0.23 0.017 0.354-0 2.349-1.794 4.261-4 4.261z"></path>
</symbol>
<symbol id="icon-gps-5" viewBox="0 0 32 32">
<path d="M15.729 0.984c-5.75 0-10.428 4.678-10.428 10.428 0 7.227 10.438 19.572 10.438 19.572s10.418-12.701 10.418-19.572c0-5.75-4.678-10.428-10.428-10.428zM18.875 14.466c-0.868 0.867-2.007 1.301-3.146 1.301s-2.279-0.434-3.146-1.301c-1.735-1.735-1.735-4.558 0-6.292 0.84-0.84 1.958-1.303 3.146-1.303s2.306 0.463 3.146 1.303c1.735 1.735 1.735 4.558 0 6.292z"></path>
</symbol>
<symbol id="icon-gridiconslocation-3" viewBox="0 0 32 32">
<path d="M25.333 12c0-1.226-0.241-2.439-0.71-3.572s-1.157-2.161-2.023-3.028c-0.867-0.867-1.895-1.554-3.028-2.023s-2.346-0.71-3.572-0.71c-1.226 0-2.439 0.241-3.572 0.71s-2.161 1.157-3.028 2.023c-0.867 0.867-1.554 1.896-2.023 3.028s-0.71 2.346-0.71 3.572c0 1.849 0.547 3.569 1.473 5.020h-0.011c3.147 4.927 7.871 12.313 7.871 12.313l7.871-12.313h-0.009c0.961-1.498 1.471-3.24 1.472-5.020zM16 16c-1.061 0-2.078-0.421-2.828-1.172s-1.172-1.768-1.172-2.828c0-1.061 0.421-2.078 1.172-2.828s1.768-1.172 2.828-1.172c1.061 0 2.078 0.421 2.828 1.172s1.172 1.768 1.172 2.828c0 1.061-0.421 2.078-1.172 2.828s-1.768 1.172-2.828 1.172z"></path>
</symbol>
<symbol id="icon-heroiconssmuser-3" viewBox="0 0 33 32">
<path d="M16.667 14.4c1.273 0 2.494-0.506 3.394-1.406s1.406-2.121 1.406-3.394c0-1.273-0.506-2.494-1.406-3.394s-2.121-1.406-3.394-1.406c-1.273 0-2.494 0.506-3.394 1.406s-1.406 2.121-1.406 3.394 0.506 2.494 1.406 3.394c0.9 0.9 2.121 1.406 3.394 1.406zM9.865 28.8c-2.429 0-4.475-2.042-3.546-4.286 0.563-1.359 1.388-2.594 2.428-3.634s2.275-1.865 3.634-2.428c1.359-0.563 2.815-0.853 4.286-0.853s2.927 0.29 4.286 0.853c1.359 0.563 2.594 1.388 3.634 2.428s1.865 2.275 2.428 3.634c0.93 2.244-1.117 4.286-3.546 4.286h-13.604z"></path>
</symbol>
<symbol id="icon-iconplay-3" viewBox="0 0 34 32">
<path stroke-linejoin="round" stroke-linecap="round" stroke-miterlimit="4" stroke-width="2.0984" d="M17.049 30.764c8.614 0 15.598-6.587 15.598-14.712s-6.983-14.712-15.598-14.712c-8.614 0-15.598 6.587-15.598 14.712s6.983 14.712 15.598 14.712z"></path>
<path stroke-linejoin="round" stroke-linecap="round" stroke-miterlimit="4" stroke-width="2.0984" d="M13.93 10.168l9.359 5.885-9.359 5.885v-11.769z"></path>
</symbol>
<symbol id="icon-instagram-1" viewBox="0 0 32 32">
<path d="M23.34 0h-14.676c-4.776 0-8.662 3.886-8.662 8.662v14.676c0 4.776 3.886 8.662 8.662 8.662h14.676c4.776 0 8.662-3.886 8.662-8.662v-14.676c0-4.776-3.886-8.662-8.662-8.662v0zM30.126 23.338c0 3.742-3.044 6.786-6.786 6.786h-14.676c-3.742 0-6.786-3.044-6.786-6.786v-14.676c0-3.742 3.044-6.786 6.786-6.786h14.676c3.742 0 6.786 3.044 6.786 6.786v14.676z"></path>
<path d="M16.002 7.25c-4.825 0-8.75 3.925-8.75 8.75s3.925 8.75 8.75 8.75c4.825 0 8.75-3.925 8.75-8.75s-3.925-8.75-8.75-8.75zM16.002 22.873c-3.79 0-6.874-3.084-6.874-6.874s3.084-6.874 6.874-6.874c3.79 0 6.874 3.084 6.874 6.874s-3.083 6.874-6.874 6.874z"></path>
<path d="M24.96 4.143c-1.426 0-2.585 1.16-2.585 2.585s1.16 2.586 2.585 2.586c1.426 0 2.586-1.16 2.586-2.586s-1.16-2.585-2.586-2.585zM24.96 7.438c-0.391 0-0.709-0.318-0.709-0.709s0.318-0.709 0.709-0.709c0.391 0 0.71 0.318 0.71 0.709s-0.318 0.709-0.71 0.709z"></path>
</symbol>
<symbol id="icon-linkedin-1" viewBox="0 0 32 32">
<path d="M31.994 32v-0.001h0.008v-11.736c0-5.741-1.236-10.164-7.948-10.164-3.227 0-5.392 1.771-6.276 3.449h-0.093v-2.913h-6.364v21.364h6.627v-10.579c0-2.785 0.528-5.479 3.977-5.479 3.399 0 3.449 3.179 3.449 5.657v10.401h6.62z"></path>
<path d="M0.53 10.636h6.635v21.364h-6.635v-21.364z"></path>
<path d="M3.845 0c-2.121 0-3.843 1.721-3.843 3.843s1.721 3.879 3.843 3.879c2.121 0 3.843-1.757 3.843-3.879-0.001-2.121-1.723-3.843-3.843-3.843v0z"></path>
</symbol>
<symbol id="icon-pc-1" viewBox="0 0 32 32">
<path d="M3.091 12.902c0.137 0.001 0.269-0.053 0.367-0.15l2.065-2.065c0.202-0.202 0.202-0.531 0-0.733s-0.531-0.202-0.733 0l-2.065 2.065c-0.098 0.097-0.153 0.229-0.153 0.367s0.055 0.27 0.153 0.367c0.097 0.097 0.229 0.15 0.367 0.15z"></path>
<path d="M3.091 16c0.137 0.001 0.269-0.053 0.367-0.15l5.163-5.164c0.202-0.202 0.202-0.531 0-0.733s-0.531-0.202-0.733 0l-5.163 5.163c-0.098 0.097-0.153 0.229-0.153 0.367s0.055 0.27 0.153 0.367c0.097 0.097 0.229 0.151 0.367 0.15z"></path>
<path d="M29.941 0.509h-13.425c-0.856 0-1.549 0.694-1.549 1.549v5.68h-11.876c-1.426 0-2.582 1.156-2.582 2.582v13.425c0 1.426 1.156 2.582 2.582 2.582h5.68v2.065h-1.549c-0.856 0-1.549 0.694-1.549 1.549s0.694 1.549 1.549 1.549h22.719c0.855 0 1.549-0.694 1.549-1.549v-27.883c0-0.856-0.694-1.549-1.549-1.549zM3.091 8.771h18.589c0.856 0 1.549 0.694 1.549 1.549v12.392h-21.687v-12.392c0-0.856 0.694-1.549 1.549-1.549zM1.542 23.745h21.687c0 0.855-0.694 1.549-1.549 1.549h-18.589c-0.856 0-1.549-0.694-1.549-1.549zM9.804 26.327h5.164v2.065h-5.164v-2.065zM16.516 30.458h-9.294c-0.285 0-0.516-0.231-0.516-0.516s0.231-0.516 0.516-0.516h10.327c0.285 0 0.516 0.231 0.516 0.516s-0.231 0.516-0.516 0.516h-1.033zM30.458 29.941c0 0.285-0.231 0.516-0.516 0.516h-10.936c0.167-0.473 0.095-0.998-0.194-1.409s-0.76-0.655-1.262-0.656h-1.549v-2.065h5.68c1.426 0 2.582-1.156 2.582-2.582v-13.425c0-1.426-1.156-2.582-2.582-2.582h-5.68v-5.68c0-0.285 0.231-0.516 0.516-0.516h13.425c0.285 0 0.516 0.231 0.516 0.516v27.883z"></path>
<path d="M28.392 3.091h-10.327c-0.57 0-1.033 0.462-1.033 1.033v1.033c0 0.57 0.462 1.033 1.033 1.033h10.327c0.57 0 1.033-0.462 1.033-1.033v-1.033c0-0.57-0.462-1.033-1.033-1.033zM18.065 5.157v-1.033h10.327v1.033h-10.327z"></path>
<path d="M27.36 10.836c0.856 0 1.549-0.694 1.549-1.549s-0.694-1.549-1.549-1.549c-0.855 0-1.549 0.694-1.549 1.549s0.694 1.549 1.549 1.549zM27.36 8.771c0.285 0 0.516 0.231 0.516 0.516s-0.231 0.516-0.516 0.516c-0.285 0-0.516-0.231-0.516-0.516s0.231-0.516 0.516-0.516z"></path>
<path d="M28.909 13.418c0-0.856-0.694-1.549-1.549-1.549s-1.549 0.694-1.549 1.549c0 0.855 0.694 1.549 1.549 1.549s1.549-0.694 1.549-1.549zM27.36 13.935c-0.285 0-0.516-0.231-0.516-0.516s0.231-0.516 0.516-0.516c0.285 0 0.516 0.231 0.516 0.516s-0.231 0.516-0.516 0.516z"></path>
<path d="M20.647 27.36c-0.285 0-0.516 0.231-0.516 0.516v1.033c0 0.285 0.231 0.516 0.516 0.516s0.516-0.231 0.516-0.516v-1.033c0-0.285-0.231-0.516-0.516-0.516z"></path>
<path d="M22.713 27.36c-0.285 0-0.516 0.231-0.516 0.516v1.033c0 0.285 0.231 0.516 0.516 0.516s0.516-0.231 0.516-0.516v-1.033c0-0.285-0.231-0.516-0.516-0.516z"></path>
<path d="M24.778 27.36c-0.285 0-0.516 0.231-0.516 0.516v1.033c0 0.285 0.231 0.516 0.516 0.516s0.516-0.231 0.516-0.516v-1.033c0-0.285-0.231-0.516-0.516-0.516z"></path>
<path d="M26.843 27.36c-0.285 0-0.516 0.231-0.516 0.516v1.033c0 0.285 0.231 0.516 0.516 0.516s0.516-0.231 0.516-0.516v-1.033c0-0.285-0.231-0.516-0.516-0.516z"></path>
<path d="M28.909 27.36c-0.285 0-0.516 0.231-0.516 0.516v1.033c0 0.285 0.231 0.516 0.516 0.516s0.516-0.231 0.516-0.516v-1.033c0-0.285-0.231-0.516-0.516-0.516z"></path>
</symbol>
<symbol id="icon-phone-5" viewBox="0 0 32 32">
<path d="M10.747 13.172c1.097-1.097 1.097-2.881 0-3.977l-3.857-3.857c-0.59-0.59-1.408-0.889-2.243-0.82-0.819 0.067-1.56 0.485-2.033 1.146-0.098 0.137-0.193 0.276-0.286 0.417l7.755 7.755 0.663-0.663z"></path>
<path d="M26.662 25.109l-3.857-3.857c-1.096-1.096-2.881-1.097-3.977 0l-0.663 0.663 7.756 7.755c0.14-0.093 0.279-0.188 0.416-0.286 0.661-0.473 1.078-1.214 1.146-2.033 0.069-0.835-0.23-1.653-0.82-2.243z"></path>
<path d="M15.513 23.402c-0.751 0-1.457-0.292-1.989-0.824l-4.103-4.102c-0.531-0.531-0.824-1.238-0.824-1.989 0-0.427 0.095-0.839 0.274-1.213l-7.5-7.5c-1.055 2.215-1.522 4.697-1.329 7.188 0.26 3.357 1.707 6.51 4.076 8.879l4.040 4.040c2.369 2.369 5.522 3.817 8.879 4.076 0.367 0.028 0.733 0.042 1.099 0.042 2.117 0 4.2-0.472 6.089-1.372l-7.5-7.5c-0.374 0.179-0.786 0.273-1.213 0.273z"></path>
<path d="M18.875 0c-0.518 0-0.938 0.42-0.938 0.938s0.42 0.938 0.938 0.938c6.203 0 11.25 5.047 11.25 11.25 0 0.518 0.42 0.938 0.938 0.938s0.938-0.42 0.938-0.938c0-7.237-5.888-13.125-13.125-13.125z"></path>
<path d="M18.875 13.124c0 0 0 0 0 0.001 0 0.518 0.42 0.938 0.938 0.938s0.938-0.42 0.938-0.938c0-1.034-0.841-1.875-1.875-1.875-0.518 0-0.938 0.419-0.938 0.937s0.42 0.937 0.937 0.937z"></path>
<path d="M18.875 9.375c2.068 0 3.75 1.682 3.75 3.75 0 0.518 0.42 0.938 0.938 0.938s0.938-0.42 0.938-0.938c0-3.102-2.523-5.625-5.625-5.625-0.518 0-0.938 0.42-0.938 0.938s0.42 0.938 0.938 0.938z"></path>
<path d="M18.875 3.75c-0.518 0-0.938 0.42-0.938 0.938s0.42 0.938 0.938 0.938c4.135 0 7.5 3.364 7.5 7.5 0 0.518 0.42 0.938 0.938 0.938s0.938-0.42 0.938-0.938c0-5.169-4.206-9.375-9.375-9.375z"></path>
</symbol>
<symbol id="icon-points-1" viewBox="0 0 41 32">
<path d="M1.455 0.727c0 0.402-0.326 0.727-0.727 0.727s-0.727-0.326-0.727-0.727c0-0.402 0.326-0.727 0.727-0.727s0.727 0.326 0.727 0.727z"></path>
<path d="M5.818 0.727c0 0.402-0.326 0.727-0.727 0.727s-0.727-0.326-0.727-0.727c0-0.402 0.326-0.727 0.727-0.727s0.727 0.326 0.727 0.727z"></path>
<path d="M10.182 0.727c0 0.402-0.326 0.727-0.727 0.727s-0.727-0.326-0.727-0.727c0-0.402 0.326-0.727 0.727-0.727s0.727 0.326 0.727 0.727z"></path>
<path d="M14.545 0.727c0 0.402-0.326 0.727-0.727 0.727s-0.727-0.326-0.727-0.727c0-0.402 0.326-0.727 0.727-0.727s0.727 0.326 0.727 0.727z"></path>
<path d="M18.909 0.727c0 0.402-0.326 0.727-0.727 0.727s-0.727-0.326-0.727-0.727c0-0.402 0.326-0.727 0.727-0.727s0.727 0.326 0.727 0.727z"></path>
<path d="M23.273 0.727c0 0.402-0.326 0.727-0.727 0.727s-0.727-0.326-0.727-0.727c0-0.402 0.326-0.727 0.727-0.727s0.727 0.326 0.727 0.727z"></path>
<path d="M27.636 0.727c0 0.402-0.326 0.727-0.727 0.727s-0.727-0.326-0.727-0.727c0-0.402 0.326-0.727 0.727-0.727s0.727 0.326 0.727 0.727z"></path>
<path d="M32 0.727c0 0.402-0.326 0.727-0.727 0.727s-0.727-0.326-0.727-0.727c0-0.402 0.326-0.727 0.727-0.727s0.727 0.326 0.727 0.727z"></path>
<path d="M36.364 0.727c0 0.402-0.326 0.727-0.727 0.727s-0.727-0.326-0.727-0.727c0-0.402 0.326-0.727 0.727-0.727s0.727 0.326 0.727 0.727z"></path>
<path d="M40.727 0.727c0 0.402-0.326 0.727-0.727 0.727s-0.727-0.326-0.727-0.727c0-0.402 0.326-0.727 0.727-0.727s0.727 0.326 0.727 0.727z"></path>
<path d="M1.455 5.091c0 0.402-0.326 0.727-0.727 0.727s-0.727-0.326-0.727-0.727c0-0.402 0.326-0.727 0.727-0.727s0.727 0.326 0.727 0.727z"></path>
<path d="M5.818 5.091c0 0.402-0.326 0.727-0.727 0.727s-0.727-0.326-0.727-0.727c0-0.402 0.326-0.727 0.727-0.727s0.727 0.326 0.727 0.727z"></path>
<path d="M10.182 5.091c0 0.402-0.326 0.727-0.727 0.727s-0.727-0.326-0.727-0.727c0-0.402 0.326-0.727 0.727-0.727s0.727 0.326 0.727 0.727z"></path>
<path d="M14.545 5.091c0 0.402-0.326 0.727-0.727 0.727s-0.727-0.326-0.727-0.727c0-0.402 0.326-0.727 0.727-0.727s0.727 0.326 0.727 0.727z"></path>
<path d="M18.909 5.091c0 0.402-0.326 0.727-0.727 0.727s-0.727-0.326-0.727-0.727c0-0.402 0.326-0.727 0.727-0.727s0.727 0.326 0.727 0.727z"></path>
<path d="M23.273 5.091c0 0.402-0.326 0.727-0.727 0.727s-0.727-0.326-0.727-0.727c0-0.402 0.326-0.727 0.727-0.727s0.727 0.326 0.727 0.727z"></path>
<path d="M27.636 5.091c0 0.402-0.326 0.727-0.727 0.727s-0.727-0.326-0.727-0.727c0-0.402 0.326-0.727 0.727-0.727s0.727 0.326 0.727 0.727z"></path>
<path d="M32 5.091c0 0.402-0.326 0.727-0.727 0.727s-0.727-0.326-0.727-0.727c0-0.402 0.326-0.727 0.727-0.727s0.727 0.326 0.727 0.727z"></path>
<path d="M36.364 5.091c0 0.402-0.326 0.727-0.727 0.727s-0.727-0.326-0.727-0.727c0-0.402 0.326-0.727 0.727-0.727s0.727 0.326 0.727 0.727z"></path>
<path d="M40.727 5.091c0 0.402-0.326 0.727-0.727 0.727s-0.727-0.326-0.727-0.727c0-0.402 0.326-0.727 0.727-0.727s0.727 0.326 0.727 0.727z"></path>
<path d="M1.455 9.455c0 0.402-0.326 0.727-0.727 0.727s-0.727-0.326-0.727-0.727c0-0.402 0.326-0.727 0.727-0.727s0.727 0.326 0.727 0.727z"></path>
<path d="M5.818 9.455c0 0.402-0.326 0.727-0.727 0.727s-0.727-0.326-0.727-0.727c0-0.402 0.326-0.727 0.727-0.727s0.727 0.326 0.727 0.727z"></path>
<path d="M10.182 9.455c0 0.402-0.326 0.727-0.727 0.727s-0.727-0.326-0.727-0.727c0-0.402 0.326-0.727 0.727-0.727s0.727 0.326 0.727 0.727z"></path>
<path d="M14.545 9.455c0 0.402-0.326 0.727-0.727 0.727s-0.727-0.326-0.727-0.727c0-0.402 0.326-0.727 0.727-0.727s0.727 0.326 0.727 0.727z"></path>
<path d="M18.909 9.455c0 0.402-0.326 0.727-0.727 0.727s-0.727-0.326-0.727-0.727c0-0.402 0.326-0.727 0.727-0.727s0.727 0.326 0.727 0.727z"></path>
<path d="M23.273 9.455c0 0.402-0.326 0.727-0.727 0.727s-0.727-0.326-0.727-0.727c0-0.402 0.326-0.727 0.727-0.727s0.727 0.326 0.727 0.727z"></path>
<path d="M27.636 9.455c0 0.402-0.326 0.727-0.727 0.727s-0.727-0.326-0.727-0.727c0-0.402 0.326-0.727 0.727-0.727s0.727 0.326 0.727 0.727z"></path>
<path d="M32 9.455c0 0.402-0.326 0.727-0.727 0.727s-0.727-0.326-0.727-0.727c0-0.402 0.326-0.727 0.727-0.727s0.727 0.326 0.727 0.727z"></path>
<path d="M36.364 9.455c0 0.402-0.326 0.727-0.727 0.727s-0.727-0.326-0.727-0.727c0-0.402 0.326-0.727 0.727-0.727s0.727 0.326 0.727 0.727z"></path>
<path d="M40.727 9.455c0 0.402-0.326 0.727-0.727 0.727s-0.727-0.326-0.727-0.727c0-0.402 0.326-0.727 0.727-0.727s0.727 0.326 0.727 0.727z"></path>
<path d="M1.455 13.818c0 0.402-0.326 0.727-0.727 0.727s-0.727-0.326-0.727-0.727c0-0.402 0.326-0.727 0.727-0.727s0.727 0.326 0.727 0.727z"></path>
<path d="M5.818 13.818c0 0.402-0.326 0.727-0.727 0.727s-0.727-0.326-0.727-0.727c0-0.402 0.326-0.727 0.727-0.727s0.727 0.326 0.727 0.727z"></path>
<path d="M10.182 13.818c0 0.402-0.326 0.727-0.727 0.727s-0.727-0.326-0.727-0.727c0-0.402 0.326-0.727 0.727-0.727s0.727 0.326 0.727 0.727z"></path>
<path d="M14.545 13.818c0 0.402-0.326 0.727-0.727 0.727s-0.727-0.326-0.727-0.727c0-0.402 0.326-0.727 0.727-0.727s0.727 0.326 0.727 0.727z"></path>
<path d="M18.909 13.818c0 0.402-0.326 0.727-0.727 0.727s-0.727-0.326-0.727-0.727c0-0.402 0.326-0.727 0.727-0.727s0.727 0.326 0.727 0.727z"></path>
<path d="M23.273 13.818c0 0.402-0.326 0.727-0.727 0.727s-0.727-0.326-0.727-0.727c0-0.402 0.326-0.727 0.727-0.727s0.727 0.326 0.727 0.727z"></path>
<path d="M27.636 13.818c0 0.402-0.326 0.727-0.727 0.727s-0.727-0.326-0.727-0.727c0-0.402 0.326-0.727 0.727-0.727s0.727 0.326 0.727 0.727z"></path>
<path d="M32 13.818c0 0.402-0.326 0.727-0.727 0.727s-0.727-0.326-0.727-0.727c0-0.402 0.326-0.727 0.727-0.727s0.727 0.326 0.727 0.727z"></path>
<path d="M36.364 13.818c0 0.402-0.326 0.727-0.727 0.727s-0.727-0.326-0.727-0.727c0-0.402 0.326-0.727 0.727-0.727s0.727 0.326 0.727 0.727z"></path>
<path d="M40.727 13.818c0 0.402-0.326 0.727-0.727 0.727s-0.727-0.326-0.727-0.727c0-0.402 0.326-0.727 0.727-0.727s0.727 0.326 0.727 0.727z"></path>
<path d="M1.455 18.182c0 0.402-0.326 0.727-0.727 0.727s-0.727-0.326-0.727-0.727c0-0.402 0.326-0.727 0.727-0.727s0.727 0.326 0.727 0.727z"></path>
<path d="M5.818 18.182c0 0.402-0.326 0.727-0.727 0.727s-0.727-0.326-0.727-0.727c0-0.402 0.326-0.727 0.727-0.727s0.727 0.326 0.727 0.727z"></path>
<path d="M10.182 18.182c0 0.402-0.326 0.727-0.727 0.727s-0.727-0.326-0.727-0.727c0-0.402 0.326-0.727 0.727-0.727s0.727 0.326 0.727 0.727z"></path>
<path d="M14.545 18.182c0 0.402-0.326 0.727-0.727 0.727s-0.727-0.326-0.727-0.727c0-0.402 0.326-0.727 0.727-0.727s0.727 0.326 0.727 0.727z"></path>
<path d="M18.909 18.182c0 0.402-0.326 0.727-0.727 0.727s-0.727-0.326-0.727-0.727c0-0.402 0.326-0.727 0.727-0.727s0.727 0.326 0.727 0.727z"></path>
<path d="M23.273 18.182c0 0.402-0.326 0.727-0.727 0.727s-0.727-0.326-0.727-0.727c0-0.402 0.326-0.727 0.727-0.727s0.727 0.326 0.727 0.727z"></path>
<path d="M27.636 18.182c0 0.402-0.326 0.727-0.727 0.727s-0.727-0.326-0.727-0.727c0-0.402 0.326-0.727 0.727-0.727s0.727 0.326 0.727 0.727z"></path>
<path d="M32 18.182c0 0.402-0.326 0.727-0.727 0.727s-0.727-0.326-0.727-0.727c0-0.402 0.326-0.727 0.727-0.727s0.727 0.326 0.727 0.727z"></path>
<path d="M36.364 18.182c0 0.402-0.326 0.727-0.727 0.727s-0.727-0.326-0.727-0.727c0-0.402 0.326-0.727 0.727-0.727s0.727 0.326 0.727 0.727z"></path>
<path d="M40.727 18.182c0 0.402-0.326 0.727-0.727 0.727s-0.727-0.326-0.727-0.727c0-0.402 0.326-0.727 0.727-0.727s0.727 0.326 0.727 0.727z"></path>
<path d="M1.455 22.545c0 0.402-0.326 0.727-0.727 0.727s-0.727-0.326-0.727-0.727c0-0.402 0.326-0.727 0.727-0.727s0.727 0.326 0.727 0.727z"></path>
<path d="M5.818 22.545c0 0.402-0.326 0.727-0.727 0.727s-0.727-0.326-0.727-0.727c0-0.402 0.326-0.727 0.727-0.727s0.727 0.326 0.727 0.727z"></path>
<path d="M10.182 22.545c0 0.402-0.326 0.727-0.727 0.727s-0.727-0.326-0.727-0.727c0-0.402 0.326-0.727 0.727-0.727s0.727 0.326 0.727 0.727z"></path>
<path d="M14.545 22.545c0 0.402-0.326 0.727-0.727 0.727s-0.727-0.326-0.727-0.727c0-0.402 0.326-0.727 0.727-0.727s0.727 0.326 0.727 0.727z"></path>
<path d="M18.909 22.545c0 0.402-0.326 0.727-0.727 0.727s-0.727-0.326-0.727-0.727c0-0.402 0.326-0.727 0.727-0.727s0.727 0.326 0.727 0.727z"></path>
<path d="M23.273 22.545c0 0.402-0.326 0.727-0.727 0.727s-0.727-0.326-0.727-0.727c0-0.402 0.326-0.727 0.727-0.727s0.727 0.326 0.727 0.727z"></path>
<path d="M27.636 22.545c0 0.402-0.326 0.727-0.727 0.727s-0.727-0.326-0.727-0.727c0-0.402 0.326-0.727 0.727-0.727s0.727 0.326 0.727 0.727z"></path>
<path d="M32 22.545c0 0.402-0.326 0.727-0.727 0.727s-0.727-0.326-0.727-0.727c0-0.402 0.326-0.727 0.727-0.727s0.727 0.326 0.727 0.727z"></path>
<path d="M36.364 22.545c0 0.402-0.326 0.727-0.727 0.727s-0.727-0.326-0.727-0.727c0-0.402 0.326-0.727 0.727-0.727s0.727 0.326 0.727 0.727z"></path>
<path d="M40.727 22.545c0 0.402-0.326 0.727-0.727 0.727s-0.727-0.326-0.727-0.727c0-0.402 0.326-0.727 0.727-0.727s0.727 0.326 0.727 0.727z"></path>
<path d="M14.545 26.909c0 0.402-0.326 0.727-0.727 0.727s-0.727-0.326-0.727-0.727c0-0.402 0.326-0.727 0.727-0.727s0.727 0.326 0.727 0.727z"></path>
<path d="M32 26.909c0 0.402-0.326 0.727-0.727 0.727s-0.727-0.326-0.727-0.727c0-0.402 0.326-0.727 0.727-0.727s0.727 0.326 0.727 0.727z"></path>
<path d="M5.818 26.909c0 0.402-0.326 0.727-0.727 0.727s-0.727-0.326-0.727-0.727c0-0.402 0.326-0.727 0.727-0.727s0.727 0.326 0.727 0.727z"></path>
<path d="M23.273 26.909c0 0.402-0.326 0.727-0.727 0.727s-0.727-0.326-0.727-0.727c0-0.402 0.326-0.727 0.727-0.727s0.727 0.326 0.727 0.727z"></path>
<path d="M40.727 26.909c0 0.402-0.326 0.727-0.727 0.727s-0.727-0.326-0.727-0.727c0-0.402 0.326-0.727 0.727-0.727s0.727 0.326 0.727 0.727z"></path>
<path d="M1.455 31.273c0 0.402-0.326 0.727-0.727 0.727s-0.727-0.326-0.727-0.727c0-0.402 0.326-0.727 0.727-0.727s0.727 0.326 0.727 0.727z"></path>
<path d="M5.818 31.273c0 0.402-0.326 0.727-0.727 0.727s-0.727-0.326-0.727-0.727c0-0.402 0.326-0.727 0.727-0.727s0.727 0.326 0.727 0.727z"></path>
<path d="M10.182 31.273c0 0.402-0.326 0.727-0.727 0.727s-0.727-0.326-0.727-0.727c0-0.402 0.326-0.727 0.727-0.727s0.727 0.326 0.727 0.727z"></path>
<path d="M14.545 31.273c0 0.402-0.326 0.727-0.727 0.727s-0.727-0.326-0.727-0.727c0-0.402 0.326-0.727 0.727-0.727s0.727 0.326 0.727 0.727z"></path>
<path d="M18.909 31.273c0 0.402-0.326 0.727-0.727 0.727s-0.727-0.326-0.727-0.727c0-0.402 0.326-0.727 0.727-0.727s0.727 0.326 0.727 0.727z"></path>
<path d="M23.273 31.273c0 0.402-0.326 0.727-0.727 0.727s-0.727-0.326-0.727-0.727c0-0.402 0.326-0.727 0.727-0.727s0.727 0.326 0.727 0.727z"></path>
<path d="M27.636 31.273c0 0.402-0.326 0.727-0.727 0.727s-0.727-0.326-0.727-0.727c0-0.402 0.326-0.727 0.727-0.727s0.727 0.326 0.727 0.727z"></path>
<path d="M32 31.273c0 0.402-0.326 0.727-0.727 0.727s-0.727-0.326-0.727-0.727c0-0.402 0.326-0.727 0.727-0.727s0.727 0.326 0.727 0.727z"></path>
<path d="M36.364 31.273c0 0.402-0.326 0.727-0.727 0.727s-0.727-0.326-0.727-0.727c0-0.402 0.326-0.727 0.727-0.727s0.727 0.326 0.727 0.727z"></path>
<path d="M40.727 31.273c0 0.402-0.326 0.727-0.727 0.727s-0.727-0.326-0.727-0.727c0-0.402 0.326-0.727 0.727-0.727s0.727 0.326 0.727 0.727z"></path>
</symbol>
<symbol id="icon-ps-1" viewBox="0 0 32 32">
<path d="M6.725 11.393h-6.548v1.859h6.548c0.513 0 0.93 0.417 0.93 0.93s-0.417 0.93-0.93 0.93h-3.76c-1.538 0-2.789 1.251-2.789 2.789v2.789h1.859v-2.789c0-0.513 0.417-0.93 0.93-0.93h3.76c1.538 0 2.789-1.251 2.789-2.789s-1.251-2.789-2.789-2.789z"></path>
<path d="M16.505 11.393c-1.538 0-2.789 1.251-2.789 2.789v3.718c0 0.513-0.417 0.93-0.93 0.93h-4.204v1.859h4.204c1.538 0 2.789-1.251 2.789-2.789v-3.718c0-0.513 0.417-0.93 0.93-0.93h4.204v-1.859h-4.204z"></path>
<path d="M30.046 16.97v-3.718c0-1.025-0.834-1.859-1.859-1.859-0.352 0-0.695 0.099-0.992 0.287l-5.887 3.718c-0.543 0.343-0.867 0.931-0.867 1.572 0 1.025 0.834 1.859 1.859 1.859h5.887v1.859h1.859v-1.859h1.859v-1.859l-1.859-0zM28.187 16.97l-5.886-0 5.886-3.718v3.718z"></path>
</symbol>
<symbol id="icon-smartphone-1" viewBox="0 0 32 32">
<path d="M22.446 0.647h-12.891c-1.243 0-2.254 1.012-2.254 2.254v26.196c0 1.243 1.012 2.255 2.254 2.255h12.891c1.243 0 2.255-1.012 2.255-2.254v-26.197c0-1.243-1.012-2.254-2.254-2.254zM8.324 4.741h15.353v19.447h-15.353v-19.447zM9.554 1.671h12.891c0.679 0 1.231 0.552 1.231 1.231v0.816h-15.353v-0.816c0-0.679 0.552-1.231 1.231-1.231zM22.446 30.329h-12.891c-0.679 0-1.231-0.552-1.231-1.231v-3.887h15.353v3.887c0 0.679-0.552 1.231-1.231 1.231z"></path>
<path d="M16 25.723c-1.129 0-2.047 0.918-2.047 2.047s0.918 2.047 2.047 2.047c1.129 0 2.047-0.918 2.047-2.047s-0.918-2.047-2.047-2.047zM16 28.794c-0.564 0-1.023-0.459-1.023-1.024s0.459-1.023 1.023-1.023c0.565 0 1.024 0.459 1.024 1.023s-0.459 1.024-1.024 1.024z"></path>
<path d="M13.953 3.206h2.047c0.283 0 0.512-0.229 0.512-0.512s-0.229-0.512-0.512-0.512h-2.047c-0.283 0-0.512 0.229-0.512 0.512s0.229 0.512 0.512 0.512z"></path>
<path d="M17.535 3.206h0.512c0.283 0 0.512-0.229 0.512-0.512s-0.229-0.512-0.512-0.512h-0.512c-0.283 0-0.512 0.229-0.512 0.512s0.229 0.512 0.512 0.512z"></path>
<path d="M29.619 2.986c-0.2-0.2-0.524-0.2-0.724 0s-0.2 0.524 0 0.724c1.912 1.912 1.912 5.023 0 6.935-0.2 0.2-0.2 0.524 0 0.724 0.1 0.1 0.231 0.15 0.362 0.15s0.262-0.050 0.362-0.15c2.311-2.311 2.311-6.071 0-8.383z"></path>
<path d="M27.464 4.15c-0.2-0.2-0.524-0.2-0.724 0s-0.2 0.524 0 0.724c0.633 0.633 0.981 1.476 0.981 2.374s-0.349 1.74-0.981 2.374c-0.2 0.2-0.2 0.524 0 0.724 0.1 0.1 0.231 0.15 0.362 0.15s0.262-0.050 0.362-0.15c0.826-0.826 1.281-1.926 1.281-3.097s-0.454-2.272-1.281-3.098z"></path>
<path d="M3.105 3.709c0.2-0.2 0.2-0.524 0-0.724s-0.524-0.2-0.724 0c-2.311 2.311-2.311 6.071 0 8.383 0.1 0.1 0.231 0.15 0.362 0.15s0.262-0.050 0.362-0.15c0.2-0.2 0.2-0.523 0-0.724-1.912-1.912-1.912-5.023 0-6.935z"></path>
<path d="M5.26 4.009c-0.2-0.2-0.524-0.2-0.724 0-0.827 0.826-1.281 1.926-1.281 3.097s0.455 2.271 1.281 3.098c0.1 0.1 0.231 0.15 0.362 0.15s0.262-0.050 0.362-0.15c0.2-0.2 0.2-0.524 0-0.724-0.633-0.633-0.982-1.476-0.982-2.374s0.348-1.74 0.982-2.374c0.2-0.2 0.2-0.524 0-0.724z"></path>
</symbol>
<symbol id="icon-star-3" viewBox="0 0 30 32">
<path d="M26.709 11.605l-7.468-1.085-3.338-6.768c-0.091-0.185-0.241-0.335-0.427-0.426-0.465-0.229-1.029-0.038-1.262 0.426l-3.338 6.768-7.468 1.085c-0.206 0.029-0.394 0.126-0.538 0.274-0.174 0.179-0.27 0.42-0.267 0.67s0.106 0.488 0.285 0.663l5.403 5.268-1.276 7.438c-0.030 0.173-0.011 0.351 0.055 0.514s0.176 0.304 0.318 0.407 0.31 0.165 0.485 0.177c0.175 0.013 0.35-0.024 0.506-0.106l6.679-3.512 6.679 3.512c0.182 0.097 0.394 0.13 0.597 0.094 0.512-0.088 0.856-0.573 0.768-1.085l-1.276-7.438 5.403-5.268c0.147-0.144 0.244-0.332 0.273-0.538 0.079-0.515-0.279-0.991-0.794-1.068z"></path>
</symbol>
<symbol id="icon-twitter-1" viewBox="0 0 32 32">
<path d="M32.002 6.078c-1.19 0.522-2.458 0.868-3.78 1.036 1.36-0.812 2.398-2.088 2.886-3.626-1.268 0.756-2.668 1.29-4.16 1.588-1.204-1.282-2.92-2.076-4.792-2.076-3.632 0-6.556 2.948-6.556 6.562 0 0.52 0.044 1.020 0.152 1.496-5.454-0.266-10.28-2.88-13.522-6.862-0.566 0.982-0.898 2.106-0.898 3.316 0 2.272 1.17 4.286 2.914 5.452-1.054-0.020-2.088-0.326-2.964-0.808 0 0.020 0 0.046 0 0.072 0 3.188 2.274 5.836 5.256 6.446-0.534 0.146-1.116 0.216-1.72 0.216-0.42 0-0.844-0.024-1.242-0.112 0.85 2.598 3.262 4.508 6.13 4.57-2.232 1.746-5.066 2.798-8.134 2.798-0.538 0-1.054-0.024-1.57-0.090 2.906 1.874 6.35 2.944 10.064 2.944 12.072 0 18.672-10 18.672-18.668 0-0.29-0.010-0.57-0.024-0.848 1.302-0.924 2.396-2.078 3.288-3.406z"></path>
</symbol>
<symbol id="icon-vrglasses-1" viewBox="0 0 32 32">
<path d="M18.567 23.905c-1.686 0.563-3.546 0.563-5.237-0-0.474-0.158-0.985 0.099-1.143 0.572s0.098 0.985 0.572 1.143c1.030 0.343 2.111 0.514 3.191 0.514s2.161-0.171 3.188-0.514c0.473-0.158 0.729-0.67 0.571-1.143s-0.67-0.729-1.143-0.571z"></path>
<path d="M26.477 6.531c-0.385-2.759-2.754-4.936-5.688-4.936h-1.032v-0.064c0-0.499-0.405-0.904-0.904-0.904h-5.808c-0.499 0-0.904 0.405-0.904 0.904v0.064h-1.032c-2.909 0-5.282 2.147-5.685 4.936-1.694 0.386-2.963 1.903-2.963 3.712v7.744c0 2.477 2.017 3.486 2.934 3.704 0.414 5.575 5.095 9.784 10.554 9.784 5.567 0 10.143-4.32 10.554-9.784 2.375-0.564 2.934-2.719 2.934-3.704v-7.744c0-1.808-1.267-3.325-2.96-3.711zM19.757 3.403h1.032c2.557 0 3.613 2.091 3.833 3.033h-4.865v-3.033zM13.949 2.435h4v4.001h-4v-4.001zM11.109 3.403h1.032v3.033h-4.862c0.586-2.455 2.811-3.033 3.829-3.033zM15.949 29.667c-4.46 0-8.273-3.379-8.73-7.872h4.457c1.109 0 2.194-0.449 2.977-1.233 0.005-0.005 0.009-0.009 0.014-0.014 0.34-0.332 0.806-0.523 1.283-0.523s0.943 0.19 1.283 0.523c0.005 0.005 0.009 0.009 0.014 0.014 0.783 0.784 1.868 1.233 2.977 1.233h4.456c-0.454 4.416-4.196 7.872-8.73 7.872zM27.629 17.987c0 1.119-0.912 2-2 2h-5.406c-0.626 0-1.239-0.251-1.684-0.689-0.005-0.005-0.010-0.010-0.015-0.015-0.678-0.677-1.616-1.066-2.575-1.066s-1.898 0.389-2.575 1.066c-0.005 0.005-0.010 0.010-0.015 0.015-0.445 0.438-1.058 0.689-1.684 0.689h-5.406c-1.085 0-2-0.878-2-2v-7.744c0-1.103 0.897-2 2-2h19.36c1.103 0 2 0.897 2 2v7.744h0z"></path>
</symbol>
</defs>
</svg>
